<?xml version="1.0" encoding="UTF-8" standalone="no"?>
<!-- Created with Inkscape (http://www.inkscape.org/) -->

<svg
   version="1.1"
   id="svg1"
   width="2512.0037"
   height="1013.704"
   viewBox="0 0 2512.0036 1013.704"
   sodipodi:docname="cupidlogohorizontal.svg"
   inkscape:version="1.3.2 (091e20e, 2023-11-25, custom)"
   xml:space="preserve"
   xmlns:inkscape="http://www.inkscape.org/namespaces/inkscape"
   xmlns:sodipodi="http://sodipodi.sourceforge.net/DTD/sodipodi-0.dtd"
   xmlns="http://www.w3.org/2000/svg"
   xmlns:svg="http://www.w3.org/2000/svg"><defs
     id="defs1" /><sodipodi:namedview
     id="namedview1"
     pagecolor="#ffffff"
     bordercolor="#000000"
     borderopacity="0.25"
     inkscape:showpageshadow="2"
     inkscape:pageopacity="0.0"
     inkscape:pagecheckerboard="0"
     inkscape:deskcolor="#d1d1d1"
     showgrid="false"
     inkscape:zoom="0.24796764"
     inkscape:cx="2151.4905"
     inkscape:cy="336.73749"
     inkscape:window-width="2560"
     inkscape:window-height="1369"
     inkscape:window-x="1912"
     inkscape:window-y="-8"
     inkscape:window-maximized="1"
     inkscape:current-layer="g1" /><g
     inkscape:groupmode="layer"
     inkscape:label="Image"
     id="g1"
     transform="translate(-977.43111,-805.52043)"><path
       id="path8"
       style="fill:#000000;fill-opacity:1"
       d="M 1312.8842 1406.3486 C 1271.1548 1407.8365 1226.5134 1436.4603 1216.2163 1483.3486 L 1177.5717 1483.0517 C 1136.2008 1427.8881 1090.3172 1475.4894 1072.3432 1505.6435 C 1009.8151 1530.2776 987.56086 1588.7945 1017.0522 1618.6025 C 934.02289 1665.4826 990.36629 1762.6946 1103.853 1705.995 C 1274.6088 1979.2191 1445.8179 1690.7051 1433.5131 1543.9892 C 1430.0744 1533.2796 1424.1799 1521.5075 1415.0131 1513.7607 C 1362.2442 1679.163 1249.9332 1656.2027 1142.9917 1562.2958 C 1124.1953 1571.7321 1102.9844 1584.9267 1088.0971 1588.2821 C 1028.4698 1596.0273 1039.6266 1576.0214 1064.019 1550.8271 L 1113.9585 1504.454 C 1138.6635 1479.8058 1151.8583 1491.2752 1162.7085 1510.1025 C 1224.6319 1516.7375 1246.1981 1537.0779 1267.0463 1557.663 C 1275.3264 1540.9682 1277.6778 1523.0885 1258.4272 1500.8876 C 1280.9811 1457.3294 1316.0145 1431.2824 1387.437 1456.2978 C 1376.0351 1420.4491 1345.3404 1405.1913 1312.8842 1406.3486 z M 1131.9936 1608.2021 L 1224.146 1673.0204 C 1232.2574 1690.8583 1232.1774 1706.9695 1233.1264 1723.7841 C 1246.7644 1713.3345 1255.3753 1698.5405 1259.6792 1680.831 C 1290.9607 1690.0247 1321.5916 1686.1837 1351.8335 1674.5829 C 1268.2401 1831.8899 1193.094 1753.5946 1118.7163 1653.8876 C 1075.6039 1681.296 1037.7441 1689.098 1016.021 1669.8974 C 1015.68 1668.9385 1015.612 1667.9449 1016.7299 1666.8036 L 1057.021 1634.7548 C 1086.7129 1632.9559 1110.6006 1622.4497 1131.9936 1608.2021 z "
       inkscape:export-filename="cupidlogohorizontal.png"
       inkscape:export-xdpi="96"
       inkscape:export-ydpi="96" /><path
       style="display:inline;fill:#000000;fill-opacity:1"
       d="m 1590.6867,1312.6321 c 47.1219,76.7263 -55.5572,207.0462 -124.9222,250.9307 19.3117,-26.3159 38.4279,-37.9662 58.6592,-133.2503 45.5972,-29.823 52.9752,-74.9336 66.263,-117.6804 z"
       id="path9"
       sodipodi:nodetypes="cccc" /><path
       style="fill:#000000;fill-opacity:1"
       d="m 1343.1694,914.75962 c 24.297,-1.6087 40.5169,-7.99022 44.0954,-21.84165 21.6487,-44.55956 85.8986,-46.25831 115.8019,-30.08377 10.0938,4.79524 34.1875,13.65109 44.0954,-4.53317 4.4144,-18.29969 21.0446,-23.27313 51.1012,-13.59952 15.4282,7.76514 33.7615,13.57772 26.3748,36.67748 -5.5149,17.19123 1.2388,22.11391 11.539,23.49007 55.562,14.91985 50.0887,125.65904 -44.5075,122.39564 -38.5013,-4.4338 -56.9022,11.2328 -57.6949,44.5076 -8.2435,42.9712 -19.1787,37.4927 -29.6717,39.9743 -22.869,-0.084 -15.5765,-10.4498 -19.7811,-16.8964 -1.977,-24.1486 -32.8468,-12.0226 -34.2048,-9.0663 -19.2331,14.7763 -5.6456,34.9565 6.1816,45.3317 31.337,25.4752 -11.8835,56.8783 -39.1502,42.8591 -116.26,-54.1751 -108.7007,-98.4634 -104.2629,-143.001 5.4716,-30.8159 -1.72,-37.8464 -11.539,-54.3981 -18.3426,-39.06339 26.0202,-64.24881 41.6228,-61.81598 z"
       id="path10"
       sodipodi:nodetypes="ccccccccccccccccc" /><path
       id="path11"
       style="fill:#000000;fill-opacity:1"
       d="M 1836.4331 805.61809 C 1818.569 804.22269 1797.9413 818.11625 1792.892 825.78801 C 1773.5844 853.44164 1769.2005 882.46776 1778.892 912.78801 L 1607.392 1160.538 C 1569.6926 1147.5353 1537.033 1156.9843 1506.642 1176.538 C 1486.6463 1189.8488 1466.0522 1202.0919 1436.892 1199.038 C 1411.7946 1197.1239 1390.3338 1202.0558 1370.892 1210.788 C 1349.4019 1153.4791 1304.5798 1115.6921 1236.892 1097.038 C 1129.473 1072.899 1073.4559 1030.2549 1036.392 980.78801 C 1023.7092 1096.6504 1088.2295 1126.8493 1157.5776 1149.5575 C 1123.0506 1146.012 1087.4981 1141.647 1058.0522 1131.1728 C 1061.5056 1151.0273 1090.5583 1218.2399 1209.3725 1212.3134 C 1173.0843 1223.9003 1139.6742 1222.2486 1105.6049 1223.6279 C 1139.5443 1272.266 1200.4408 1278.2329 1261.8745 1245.1943 C 1241.2438 1264.6562 1216.4813 1276.368 1192.226 1289.0341 C 1219.8604 1301.6018 1270.354 1304.2672 1292.2807 1281.7861 C 1297.5019 1269.7467 1317.448 1261.4783 1338.7788 1258.122 C 1389.1608 1250.1947 1461.8332 1235.2625 1483.7299 1230.5224 C 1507.2722 1228.712 1522.8159 1221.6604 1532.6967 1210.8993 C 1565.8216 1186.2854 1578.631 1188.1697 1590.5034 1191.2763 C 1606.2771 1198.5791 1622.9332 1205.4612 1608.8881 1226.9853 C 1588.0936 1250.6567 1555.8451 1249.8616 1525.0952 1252.2646 C 1516.5534 1253.703 1507.8142 1253.1702 1500.1694 1263.579 C 1413.8294 1334.964 1361.7504 1335.9577 1299.351 1358.1552 C 1291.1229 1361.883 1293.7779 1366.8184 1298.1147 1371.9423 C 1373.259 1421.073 1494.4714 1328.1333 1528.6303 1284.2607 C 1548.2627 1284.9861 1568.304 1284.0786 1589.2651 1279.4892 L 1782.6596 1566.9267 C 1760.5954 1634.6551 1808.5996 1673.3169 1832.5112 1671.0497 C 1861.905 1673.345 1871.2401 1641.6993 1856.5815 1633.6669 C 1856.3544 1633.3249 1855.195 1633.2457 1854.8081 1633.5126 C 1847.4056 1638.6178 1836.4196 1637.7961 1829.6811 1634.8095 C 1780.3799 1604.7696 1857.9727 1517.6843 1920.5444 1480.6611 C 1962.8657 1441.6396 1985.9047 1394.7468 1963.1479 1329.163 C 1946.7269 1304.4621 1937.8444 1277.3628 1961.7319 1237.4638 C 1962.0588 1237.0597 1962.0727 1236.2307 1962.1167 1235.4657 L 1962.6186 1211.2529 L 1991.9624 1210.0146 C 1995.1781 1209.6198 2003.4987 1209.927 2006.2983 1206.4736 C 2010.7495 1200.983 2008.7361 1188.143 2007.1381 1185.9833 C 2004.652 1182.6233 1997.3958 1183.4976 1990.726 1182.2607 L 1962.4409 1181.7314 L 1959.7905 1166.3525 C 1989.6564 1085.6648 1966.1875 1014.7253 1872.1088 956.69426 C 1850.4924 939.77792 1814.6073 905.06595 1815.8901 871.48723 C 1816.5083 855.30642 1822.8573 836.57737 1843.142 839.28801 C 1847.2057 841.36023 1853.2545 843.78532 1858.7963 838.37785 C 1860.7927 836.42992 1861.4482 832.77005 1861.642 829.28801 C 1856.8749 812.79681 1847.1515 806.45532 1836.4331 805.61809 z M 1790.892 932.03801 C 1814.6799 965.51554 1846.613 995.89044 1884.392 1024.038 C 1931.5792 1060.2256 1937.1035 1108.744 1913.017 1166.913 L 1912.392 1184.288 L 1644.0659 1188.0946 L 1627.6264 1169.7099 L 1790.892 932.03801 z M 1926.142 1214.538 C 1926.8359 1230.0147 1919.786 1237.0436 1913.392 1244.788 C 1886.5247 1268.192 1894.4672 1291.0434 1909.142 1313.788 C 1941.6238 1369.323 1931.7018 1412.9079 1890.892 1447.788 C 1848.7032 1478.9588 1812.7703 1511.0495 1793.142 1545.538 L 1606.892 1271.538 C 1626.8617 1259.7025 1642.1372 1243.8434 1648.142 1220.038 L 1926.142 1214.538 z " /><path
       style="fill:#000000;fill-opacity:1"
       d="m 2004.3919,1153.1628 c 27.1527,40.3331 9.1959,57.7547 3.625,81.125 44.5809,-3.0145 78.4496,-27.4731 112.875,-47.625 -45.8762,-25.5667 -85.2879,-35.9285 -116.5,-33.5 z"
       id="path12"
       sodipodi:nodetypes="cccc" /><path
       style="fill:#000000;fill-opacity:1;stroke:none;stroke-width:1.3;stroke-linecap:butt;stroke-linejoin:round;stroke-dasharray:none;stroke-opacity:1"
       d="m 1651.4297,1286.5752 c -5.7524,2.9115 -8.6906,5.2365 -11.8054,9.2508 -1.411,1.8183 -0.7501,6.1794 0.1042,8.1314 58.2278,51.3415 144.8746,1.2273 236.3767,-31.4014 2.3876,-1.3705 6.4405,-2.3789 1.6639,-5.3068 l -28.6921,-16.6956 c -3.1346,-3.0263 -6.5218,-2.4332 -9.8951,-2.0392 -57.894,14.5482 -117.0721,45.8608 -173.7253,36.5286 -4.8508,-0.799 -8.4795,-0.6914 -14.0269,1.5322 z"
       id="path15"
       sodipodi:nodetypes="cscccccsc" /><path
       d="m 2325.4539,1492.2591 q -39.3071,0 -69.2788,-15.2315 -29.4803,-15.2315 -46.1859,-43.2378 -16.2141,-28.0063 -16.2141,-64.8567 v -106.1293 q 0,-36.3591 16.2141,-63.874 16.7056,-28.0064 46.1859,-43.2379 29.9717,-15.2315 69.2788,-15.2315 39.3071,0 68.7875,14.7402 29.9716,14.2488 46.1858,40.7811 16.7055,26.041 16.7055,60.4347 0,2.4567 -1.9653,3.9307 -1.474,1.4741 -3.9307,1.4741 l -69.7702,4.422 q -5.896,0 -5.896,-5.4047 0,-23.093 -13.7575,-36.8504 -13.7575,-13.7575 -36.3591,-13.7575 -22.6016,0 -36.3591,14.2488 -13.7575,13.7575 -13.7575,36.3591 v 111.5339 q 0,22.6016 13.7575,36.3591 13.7575,13.7575 36.3591,13.7575 22.6016,0 36.3591,-13.7575 13.7575,-13.7575 13.7575,-36.3591 0,-5.4047 5.896,-5.4047 l 69.7702,3.4394 q 2.4567,0 3.9307,1.474 1.9653,1.474 1.9653,3.4394 0,34.885 -16.7055,61.4173 -16.2142,26.5323 -46.1858,41.2725 -29.4804,14.2488 -68.7875,14.2488 z m 302.1731,0 q -38.8158,0 -68.7875,-14.7401 -29.4803,-15.2315 -46.1858,-42.7465 -16.2142,-27.515 -16.2142,-63.3828 v -221.1025 q 0,-2.4567 1.474,-3.9307 1.9654,-1.9654 4.4221,-1.9654 h 69.7701 q 2.4567,0 3.9307,1.9654 1.9654,1.474 1.9654,3.9307 v 221.1025 q 0,23.093 13.2661,37.3418 13.7575,13.7575 36.3591,13.7575 22.1103,0 35.3764,-13.7575 13.7575,-14.2488 13.7575,-37.3418 v -221.1025 q 0,-2.4567 1.474,-3.9307 1.9654,-1.9654 4.4221,-1.9654 h 69.7701 q 2.4567,0 3.9307,1.9654 1.9654,1.474 1.9654,3.9307 v 221.1025 q 0,35.8678 -16.2142,63.3828 -16.2142,27.515 -46.1859,42.7465 -29.4803,14.7401 -68.2961,14.7401 z m 323.3007,-347.868 q 33.411,0 58.9606,13.7575 26.041,13.7575 39.7985,38.8158 14.2488,24.567 14.2488,56.9953 0,31.9371 -14.7402,56.504 -14.2488,24.567 -40.7811,37.8331 -26.5323,13.2662 -61.4174,13.2662 h -59.9433 q -2.4567,0 -2.4567,2.4567 v 118.4127 q 0,2.4567 -1.9654,4.422 -1.474,1.474 -3.9307,1.474 h -69.7701 q -2.4567,0 -4.4221,-1.474 -1.474,-1.9653 -1.474,-4.422 v -332.1452 q 0,-2.4567 1.474,-3.9307 1.9654,-1.9654 4.4221,-1.9654 z m -13.2662,152.3151 q 20.1449,0 32.4284,-11.3008 12.7748,-11.3008 12.7748,-29.4803 0,-18.6709 -12.7748,-29.9717 -12.2835,-11.7921 -32.4284,-11.7921 h -50.6079 q -2.4567,0 -2.4567,2.4567 v 77.6315 q 0,2.4567 2.4567,2.4567 z m 166.5637,191.6222 q -2.4567,0 -4.4221,-1.474 -1.474,-1.9653 -1.474,-4.422 v -332.1452 q 0,-2.4567 1.474,-3.9307 1.9654,-1.9654 4.4221,-1.9654 h 69.7701 q 2.4567,0 3.9307,1.9654 1.9654,1.474 1.9654,3.9307 v 332.1452 q 0,2.4567 -1.9654,4.422 -1.474,1.474 -3.9307,1.474 z m 130.2045,0 q -2.4567,0 -4.422,-1.474 -1.474,-1.9653 -1.474,-4.422 v -332.1452 q 0,-2.4567 1.474,-3.9307 1.9653,-1.9654 4.422,-1.9654 h 125.2915 q 38.3244,0 67.8047,13.2662 29.4804,13.2661 45.6946,37.8331 16.2142,24.5669 16.2142,56.504 v 128.7308 q 0,31.937 -16.2142,56.504 -16.2142,24.5669 -45.6946,37.8331 -29.4803,13.2661 -67.8047,13.2661 z m 75.6662,-72.2268 q 0,2.4567 2.4567,2.4567 h 50.6079 q 19.6536,0 31.9371,-13.7575 12.2834,-14.2488 12.7748,-37.8331 v -101.2158 q 0,-23.5843 -12.7748,-37.3418 -12.2835,-14.2488 -32.4284,-14.2488 h -50.1166 q -2.4567,0 -2.4567,2.4567 z"
       id="text1"
       style="font-weight:800;font-size:491.339px;font-family:Barlow;-inkscape-font-specification:'Barlow Ultra-Bold';stroke-width:1.3;stroke-linejoin:round"
       aria-label="CUPID" /></g></svg>
